Coordinates
version=1
nRows=13
nColumns=36
inDegrees=yes

Units are S.I. units (second, meters, Newtons, ...)
If the header above contains a line with 'inDegrees', this indicates whether rotational values are in degrees (yes) or radians (no).

endheader
time	pelvis_tilt	pelvis_list	pelvis_rotation	pelvis_tx	pelvis_ty	pelvis_tz	hip_flexion_r	hip_adduction_r	hip_rotation_r	knee_angle_r	knee_angle_r_beta	ankle_angle_r	subtalar_angle_r	mtp_angle_r	hip_flexion_l	hip_adduction_l	hip_rotation_l	knee_angle_l	knee_angle_l_beta	ankle_angle_l	subtalar_angle_l	mtp_angle_l	lumbar_extension	lumbar_bending	lumbar_rotation	arm_flex_r	arm_add_r	arm_rot_r	elbow_flex_r	pro_sup_r	arm_flex_l	arm_add_l	arm_rot_l	elbow_flex_l	pro_sup_l
      4.46250000	    -11.88493577	     -3.33933019	      4.63059616	      0.44679393	      0.97347358	     -0.14964241	     16.89107314	     -6.69419764	     -2.10677180	     10.40448516	      0.18159252	      0.10208291	    -15.06146215	     -7.49999987	     24.47485046	     -3.72343298	     11.95800222	     25.98888863	      0.45359168	     12.12352073	     -6.41725998	     -7.49999987	    -12.95021595	     -0.37954873	     -6.31727041	     14.05292887	     -8.54041711	     12.73633155	     30.40437355	     76.17227251	   -156.62214875	   -163.19716544	   -188.57946424	     43.78919088	     45.75240904
      4.46666670	    -11.89374473	     -3.31264095	      4.61223417	      0.44279188	      0.97345078	     -0.14467125	     16.90433029	     -6.68517010	     -2.13851515	     10.37668235	      0.18110727	      0.11523082	    -15.08934141	     -7.49999987	     24.46915100	     -3.70931716	     11.88397753	     25.97382170	      0.45332871	     12.13132478	     -6.46521744	     -7.49999987	    -12.91189262	     -0.29893699	     -6.28105948	     14.17272118	     -8.40942734	     12.76879372	     30.45054738	     76.18327981	   -156.60448666	   -163.29972566	   -188.53726143	     43.81730398	     45.73925302
      4.47083330	    -11.69995534	     -3.21448485	      4.57655847	      0.44682160	      0.97600105	     -0.14949054	     16.51214921	     -6.85767311	     -2.16085074	     10.20503346	      0.17811143	     -0.21645719	    -15.06398915	     -7.49999987	     24.03395451	     -3.53173999	     11.87942079	     25.73966471	      0.44924190	     11.93289105	     -6.67081643	     -7.49999987	    -12.94100679	     -0.26460858	     -6.25550518	     14.19911435	     -8.52706461	     13.04746223	     30.30098766	     76.32244547	   -156.86855649	   -163.43900502	   -188.17559485	     44.09452976	     45.48439610
      4.47500000	    -11.72528572	     -3.17802489	      4.57600013	      0.44274789	      0.97312707	     -0.14434687	     16.54213998	     -6.85311211	     -2.21385622	     10.13139219	      0.17682615	     -0.15176341	    -15.13837837	     -7.49999987	     24.06928843	     -3.50010791	     11.80999419	     25.74521590	      0.44933878	     11.96374464	     -6.73719324	     -7.49999987	    -12.96129943	     -0.24616587	     -6.14814838	     14.37418214	     -8.31590283	     13.10228218	     30.37587368	     76.33775205	   -156.80336166	   -163.49271445	   -188.13479199	     44.15149683	     45.46383109
      4.47916670	    -11.65341842	     -3.01341918	      4.53128443	      0.44259208	      0.97582691	     -0.14410500	     16.45331751	     -6.92566715	     -2.15885246	      9.97903285	      0.17416698	     -0.35145423	    -15.45814377	     -7.49999987	     23.94522118	     -3.36940147	     11.82745698	     25.65177235	      0.44770789	     11.67753201	     -6.85172058	     -7.49999987	    -13.06661726	     -0.43594542	     -6.17772103	     14.66801953	     -8.23613841	     14.04647187	     30.29603069	     76.78682140	   -156.79818762	   -163.22858465	   -187.12287431	     44.78898432	     41.65068832
      4.48333330	    -11.54386695	     -2.85577326	      4.56545934	      0.44263539	      0.97851351	     -0.14414707	     16.24771255	     -7.03533863	     -2.18524120	      9.73664355	      0.16993649	     -0.46693760	    -15.41293889	     -7.49999987	     23.70944569	     -3.27143217	     11.75721505	     25.37701552	      0.44291248	     11.51739809	     -6.68012411	     -7.49999987	    -13.27330900	     -0.60672729	     -6.08308140	     14.65012352	     -8.08864515	     13.95826568	     30.60180134	     75.96027713	   -156.59876240	   -163.16857371	   -186.44132130	     44.82455057	     42.34864414
      4.48750000	    -11.42137047	     -2.74154831	      4.56265407	      0.44263195	      0.97530853	     -0.14388337	     16.13731272	     -7.07499895	     -2.31355140	      9.67448830	      0.16885167	     -0.48040296	    -15.49688981	     -7.49999987	     23.49488163	     -3.24060403	     11.60355754	     25.16797005	      0.43926394	     11.58135044	     -6.49790942	     -7.49999987	    -13.49866033	     -0.72610239	     -5.98712145	     14.73312423	     -8.00392852	     13.96688838	     30.84199117	     74.85982203	   -156.25429482	   -163.29181688	   -186.14045562	     44.88582870	     43.28611921
      4.49166670	    -11.49283461	     -2.62211208	      4.63424173	      0.44242378	      0.98098760	     -0.14399263	     16.18515538	     -7.19646494	     -2.37831609	      9.60319795	      0.16760742	     -0.81148453	    -15.33073526	     -7.49999987	     23.45731222	     -3.12306776	     11.48918261	     24.86216393	      0.43392662	     11.22707297	     -6.30644314	     -7.49999987	    -13.49479537	     -0.80271791	     -6.12946262	     14.86492932	     -7.85410744	     14.04067367	     30.82579143	     74.89005019	   -156.07321964	   -163.44904828	   -186.09794553	     44.91973069	     43.25030525
      4.49583330	    -11.14860922	     -2.53335306	      4.78994986	      0.44260692	      0.98063044	     -0.14383006	     15.66938756	     -7.25330221	     -2.57041557	      9.32124691	      0.16268645	     -1.12863241	    -15.41392596	     -7.49999987	     22.93084199	     -3.06855678	     11.44594319	     24.54439100	      0.42838044	     10.98449002	     -6.15214469	     -7.49999987	    -13.83583618	     -0.82368212	     -6.23711843	     15.02892152	     -7.70131892	     14.20720089	     30.85822241	     74.46705997	   -155.90719694	   -163.59460294	   -185.63589402	     44.90361336	     43.61817741
      4.50000000	    -10.85925681	     -2.33643193	      4.91385090	      0.44651958	      0.98052030	     -0.14873708	     15.21007417	     -7.52309317	     -2.69289170	      9.21833127	      0.16089023	     -1.28252914	    -15.25727474	     -7.49999987	     22.38937662	     -2.81414250	     11.43690088	     24.29451273	      0.42401924	     10.72905984	     -6.02772034	     -7.49999987	    -13.99585933	     -0.84627731	     -6.47131966	     15.13716545	     -7.77624816	     14.83521937	     30.64755217	     74.83301895	   -155.98348536	   -163.78710835	   -184.88781903	     44.89568554	     43.16816869
      4.50416670	    -10.65922946	     -2.25739816	      5.07597512	      0.44642999	      0.97999951	     -0.14863669	     14.88165489	     -7.65049226	     -2.71553277	      9.15085582	      0.15971256	     -1.28094281	    -15.22483552	     -7.49999987	     22.02806707	     -2.66848061	     11.46455623	     24.14483185	      0.42140681	     10.67122173	     -5.89318502	     -7.49999987	    -14.09478341	     -0.72149098	     -6.54886975	     15.10626498	     -7.90664003	     14.77507725	     30.86478773	     74.45071025	   -156.01890195	   -164.05855841	   -184.39622201	     45.02293556	     43.44512724
      4.50833330	    -10.64420974	     -2.25075136	      5.22307291	      0.44236814	      0.98011135	     -0.14378392	     14.88162632	     -7.63815661	     -2.68345079	      9.14587484	      0.15962563	     -1.24165215	    -15.23547768	     -7.49999987	     22.03871070	     -2.68295142	     11.35009888	     24.05462907	      0.41983248	     10.65361839	     -5.89315769	     -7.49999987	    -14.04136752	     -0.69384616	     -6.69068620	     15.26366040	     -7.83514527	     14.78172283	     30.91533314	     74.45659607	   -155.82019225	   -164.24053749	   -184.32527126	     45.10977258	     43.44083457
      4.51250000	    -10.34734910	     -2.09982626	      5.31959663	      0.44226534	      0.98326449	     -0.14372528	     14.58798074	     -7.72460770	     -2.66901819	      9.12823824	      0.15931781	     -1.06108094	    -15.12874471	     -7.49999987	     21.64937396	     -2.62259311	     11.27161290	     23.85050001	      0.41626975	     10.52548230	     -5.55483635	     -7.49999987	    -14.62389811	     -0.80623044	     -6.59528191	     15.41422632	     -7.76559910	     14.69987795	     31.04885465	     73.71966841	   -155.40476532	   -164.27860974	   -183.01840856	     45.22444753	     43.90737863
